<svg width="52" height="59" viewBox="0 0 52 59" fill="none" xmlns="http://www.w3.org/2000/svg">
<path id="compost" d="M25.7292 58.2292C22.1632 58.2292 18.8229 57.5521 15.7083 56.1979C12.5938 54.8438 9.87413 53.0043 7.54948 50.6797C5.22483 48.355 3.38542 45.6354 2.03125 42.5208C0.677083 39.4062 0 36.066 0 32.5C0 28.934 0.677083 25.5938 2.03125 22.4792C3.38542 19.3646 5.22483 16.645 7.54948 14.3203C9.87413 11.9957 12.5938 10.1562 15.7083 8.80208C18.8229 7.44792 22.1632 6.77083 25.7292 6.77083V0L36.5625 10.8333L25.7292 21.6667V14.8958C20.8542 14.8958 16.7014 16.6111 13.2708 20.0417C9.84028 23.4722 8.125 27.625 8.125 32.5C8.125 35.4792 8.81337 38.2439 10.1901 40.7943C11.5668 43.3446 13.4063 45.4097 15.7083 46.9896C16.4306 45.7257 17.5026 44.6536 18.9245 43.7734C20.3464 42.8932 21.9826 42.3403 23.8333 42.1146C23.6979 41.1667 23.5174 40.2188 23.2917 39.2708C23.066 38.3229 22.7951 37.4427 22.4792 36.6302C21.9826 37.0365 21.441 37.3524 20.8542 37.5781C20.2674 37.8038 19.6354 37.9167 18.9583 37.9167C17.4688 37.9167 16.1936 37.3863 15.1328 36.3255C14.0721 35.2648 13.5417 33.9896 13.5417 32.5V29.7917C13.5417 29.0243 13.4175 28.3021 13.1693 27.625C12.921 26.9479 12.5938 26.316 12.1875 25.7292C14.4444 25.684 16.4531 25.8872 18.2135 26.3385C19.7483 26.7448 21.1476 27.4106 22.4115 28.3359C23.6754 29.2613 24.3299 30.6493 24.375 32.5C24.375 32.9062 24.3411 33.2786 24.2734 33.6172C24.2057 33.9557 24.0816 34.3056 23.901 34.6667C23.3142 34.2153 22.7274 33.809 22.1406 33.4479C21.5538 33.0868 20.9444 32.7708 20.3125 32.5C21.0799 33.0868 21.9601 33.9896 22.9531 35.2083C23.9462 36.4271 24.8715 37.8715 25.7292 39.5417C26.6319 37.3299 27.7604 35.1519 29.1146 33.0078C30.4688 30.8637 32.0486 28.8889 33.8542 27.0833C32.816 27.8056 31.8229 28.5729 30.875 29.3854C29.9271 30.1979 29.0017 31.0556 28.099 31.9583C27.783 31.4618 27.5347 30.9089 27.3542 30.2995C27.1736 29.6901 27.0833 29.0694 27.0833 28.4375C27.0833 26.5417 27.7379 24.9392 29.0469 23.6302C30.3559 22.3212 31.9583 21.6667 33.8542 21.6667H36.5625C37.6007 21.6667 38.4583 21.5312 39.1354 21.2604C39.8125 20.9896 40.3767 20.6736 40.8281 20.3125C41.3247 19.9062 41.7083 19.4549 41.9792 18.9583C42.1597 21.9826 42.0017 24.691 41.5052 27.0833C41.099 29.1146 40.3316 30.9766 39.2031 32.6693C38.0747 34.362 36.2917 35.2083 33.8542 35.2083C33.1771 35.2083 32.5339 35.1181 31.9245 34.9375C31.3151 34.7569 30.7622 34.5087 30.2656 34.1927C29.9497 35.0503 29.5885 36.1901 29.1823 37.612C28.776 39.0339 28.4601 40.5573 28.2344 42.1823C29.9497 42.4983 31.4618 43.0851 32.7708 43.9427C34.0799 44.8003 35.0729 45.816 35.75 46.9896C38.0521 45.4097 39.8915 43.3559 41.2682 40.8281C42.645 38.3003 43.3333 35.5243 43.3333 32.5H51.4583C51.4583 36.066 50.7813 39.4062 49.4271 42.5208C48.0729 45.6354 46.2335 48.355 43.9089 50.6797C41.5842 53.0043 38.8646 54.8438 35.75 56.1979C32.6354 57.5521 29.2951 58.2292 25.7292 58.2292Z" fill="#1C1B1F"/>
</svg>
