<svg width="44" height="49" viewBox="0 0 44 49" fill="none" xmlns="http://www.w3.org/2000/svg">
<path id="potted_plant" d="M13.8328 43.9369H30.4743L32.8861 34.2242H11.421L13.8328 43.9369ZM13.8328 48.7932C12.7073 48.7932 11.7225 48.4492 10.8783 47.7612C10.0342 47.0733 9.47145 46.1829 9.19007 45.0903L6.47679 34.2242H37.8303L35.117 45.0903C34.8357 46.1829 34.2729 47.0733 33.4288 47.7612C32.5846 48.4492 31.5998 48.7932 30.4743 48.7932H13.8328ZM5.27088 29.3679H39.0362V24.5116H5.27088V29.3679ZM22.1536 14.7989C22.1536 10.752 23.5604 7.31212 26.3742 4.47926C29.188 1.64641 32.6047 0.22998 36.6244 0.22998C36.6244 3.87222 35.4788 7.02883 33.1876 9.69981C30.8964 12.3708 28.0223 13.9896 24.5654 14.5561V19.6553H43.8598V29.3679C43.8598 30.7034 43.3875 31.8467 42.4429 32.7977C41.4983 33.7487 40.3627 34.2242 39.0362 34.2242H5.27088C3.94439 34.2242 2.80883 33.7487 1.8642 32.7977C0.919578 31.8467 0.447266 30.7034 0.447266 29.3679V19.6553H19.7417V14.5561C16.2848 13.9896 13.4107 12.3708 11.1195 9.69981C8.8283 7.02883 7.68269 3.87222 7.68269 0.22998C11.7024 0.22998 15.1191 1.64641 17.9329 4.47926C20.7467 7.31212 22.1536 10.752 22.1536 14.7989Z" fill="#1C1B1F"/>
</svg>
