<svg width="55" height="55" viewBox="0 0 55 55" fill="none" xmlns="http://www.w3.org/2000/svg">
<path id="spa" d="M27.7298 54.5834C24.4347 54.1772 21.1621 53.2857 17.9121 51.9089C14.6621 50.5322 11.7619 48.5574 9.21159 45.9845C6.66124 43.4115 4.59614 40.1615 3.01628 36.2345C1.43641 32.3074 0.646484 27.5904 0.646484 22.0834V19.3751H3.35482C5.6569 19.3751 8.02669 19.6685 10.4642 20.2553C12.9017 20.8421 15.1812 21.7223 17.3027 22.8959C17.8444 19.014 19.0744 15.0305 20.9928 10.9454C22.9112 6.86032 25.1569 3.35078 27.7298 0.416748C30.3027 3.35078 32.5484 6.86032 34.4668 10.9454C36.3852 15.0305 37.6152 19.014 38.1569 22.8959C40.2784 21.7223 42.5579 20.8421 44.9954 20.2553C47.4329 19.6685 49.8027 19.3751 52.1048 19.3751H54.8131V22.0834C54.8131 27.5904 54.0232 32.3074 52.4434 36.2345C50.8635 40.1615 48.7984 43.4115 46.248 45.9845C43.6977 48.5574 40.8088 50.5322 37.5814 51.9089C34.3539 53.2857 31.0701 54.1772 27.7298 54.5834ZM27.5944 49.0313C27.0979 41.5383 24.8748 35.8733 20.9251 32.0365C16.9755 28.1997 12.0666 25.8299 6.19857 24.9272C6.6951 32.6459 8.98589 38.4011 13.071 42.1928C17.156 45.9845 21.9972 48.264 27.5944 49.0313ZM27.7298 31.8334C28.4069 30.8404 29.2307 29.8134 30.2012 28.7527C31.1717 27.6919 32.1083 26.7779 33.0111 26.0105C32.9208 23.4376 32.413 20.7518 31.4876 17.9532C30.5623 15.1546 29.3097 12.4237 27.7298 9.7605C26.15 12.4237 24.8974 15.1546 23.972 17.9532C23.0467 20.7518 22.5388 23.4376 22.4486 26.0105C23.3513 26.7779 24.2993 27.6919 25.2923 28.7527C26.2854 29.8134 27.0979 30.8404 27.7298 31.8334ZM33.0111 47.8126C34.6812 47.2709 36.4191 46.481 38.2246 45.4428C40.0302 44.4046 41.7116 42.994 43.2689 41.211C44.8262 39.428 46.1578 37.2049 47.2637 34.5417C48.3696 31.8786 49.0354 28.6737 49.2611 24.9272C45.018 25.5591 41.2941 26.9697 38.0892 29.1589C34.8843 31.3482 32.4243 34.1355 30.709 37.5209C31.2507 38.9654 31.7133 40.5452 32.097 42.2605C32.4807 43.9758 32.7854 45.8265 33.0111 47.8126Z" fill="#1C1B1F"/>
</svg>
